<?xml version="1.0" encoding="UTF-8"?>
<svg width="48px" height="48px" viewBox="0 0 48 48" version="1.1" xmlns="http://www.w3.org/2000/svg" xmlns:xlink="http://www.w3.org/1999/xlink">
    <!-- Generator: Sketch 53.2 (72643) - https://sketchapp.com -->
    <title>Group 2</title>
    <desc>Created with Sketch.</desc>
    <g id="Page-1" stroke="none" stroke-width="1" fill="none" fill-rule="evenodd">
        <g id="Group-2" transform="translate(0.000000, -0.000000)">
            <circle id="Oval" fill="#00C300" cx="24" cy="24" r="24"></circle>
            <g id="line-(1)" transform="translate(9.425455, 10.210909)" fill-rule="nonzero">
                <g id="Group">
                    <path d="M28.9982836,13.0564364 C29.0651345,12.7042909 29.0982109,12.408 29.1133964,12.1755927 C29.1385309,11.7920291 29.1099055,11.2225745 29.0996945,11.0442764 C28.7464145,4.89957818 22.3713164,0.00401454545 14.5586618,0.00401454545 C6.51927273,0.00401454545 0.00218181818,5.18775273 0.00218181818,11.5822255 C0.00218181818,17.4596945 5.50804364,22.3141527 12.6411055,23.0608582 C13.0772073,23.1065018 13.3916509,23.5001891 13.3433018,23.9359418 L13.0395927,26.6694982 C12.9706473,27.2900073 13.6122764,27.7414691 14.1745745,27.4700509 C20.2011055,24.5616 23.8047709,21.5694545 25.9567418,18.9771927 C26.3483345,18.5054836 27.6252218,16.71648 27.8855564,16.2466036 C28.4381673,15.2490764 28.8191127,14.1778909 28.9982836,13.0564364 Z" id="Path" fill="#FFFFFF"></path>
                    <path d="M6.55444364,13.92768 L6.55444364,9.05070545 C6.55444364,8.63947636 6.22106182,8.30609455 5.80983273,8.30609455 L5.80983273,8.30609455 C5.39860364,8.30609455 5.06522182,8.63947636 5.06522182,9.05070545 L5.06522182,14.6722909 C5.06522182,15.08352 5.39860364,15.4169018 5.80983273,15.4169018 L8.78818909,15.4169018 C9.19941818,15.4169018 9.5328,15.08352 9.5328,14.6722909 L9.5328,14.6722909 C9.5328,14.2610618 9.19941818,13.92768 8.78818909,13.92768 L6.55444364,13.92768 Z" id="Path" fill="#00C500"></path>
                    <path d="M11.1474327,15.4169018 L10.8219055,15.4169018 C10.5005673,15.4169018 10.2400582,15.1563927 10.2400582,14.8350545 L10.2400582,8.88794182 C10.2400582,8.56660364 10.5005673,8.30609455 10.8219055,8.30609455 L11.1474327,8.30609455 C11.4687709,8.30609455 11.72928,8.56660364 11.72928,8.88794182 L11.72928,14.8350545 C11.72928,15.1563927 11.4687709,15.4169018 11.1474327,15.4169018 Z" id="Path" fill="#00C500"></path>
                    <path d="M17.1646255,9.05070545 L17.1646255,12.4849745 C17.1646255,12.4849745 14.1909818,8.60631273 14.1456,8.55534545 C14.00352,8.39589818 13.7941527,8.29780364 13.5617455,8.30661818 C13.1567127,8.32197818 12.8461091,8.67595636 12.8461091,9.08125091 L12.8461091,14.6722036 C12.8461091,15.0834327 13.1794909,15.4168145 13.59072,15.4168145 L13.59072,15.4168145 C14.0019491,15.4168145 14.3353309,15.0834327 14.3353309,14.6722036 L14.3353309,11.2587927 C14.3353309,11.2587927 17.3541818,15.1712291 17.3985164,15.2132945 C17.5302109,15.33792 17.7071127,15.4150691 17.9023418,15.4168145 C18.31584,15.4205673 18.6538473,15.0548073 18.6538473,14.6413091 L18.6538473,9.05070545 C18.6538473,8.63947636 18.3204655,8.30609455 17.9092364,8.30609455 L17.9092364,8.30609455 C17.4980073,8.30618182 17.1646255,8.63947636 17.1646255,9.05070545 Z" id="Path" fill="#00C500"></path>
                    <path d="M24.2381673,9.05070545 L24.2381673,9.05070545 C24.2381673,8.63947636 23.9047855,8.30609455 23.4935564,8.30609455 L20.5152,8.30609455 C20.1039709,8.30609455 19.7705891,8.63947636 19.7705891,9.05070545 L19.7705891,14.6722909 C19.7705891,15.08352 20.1039709,15.4169018 20.5152,15.4169018 L23.4935564,15.4169018 C23.9047855,15.4169018 24.2381673,15.08352 24.2381673,14.6722909 L24.2381673,14.6722909 C24.2381673,14.2610618 23.9047855,13.92768 23.4935564,13.92768 L21.2598109,13.92768 L21.2598109,12.6060218 L23.4935564,12.6060218 C23.9047855,12.6060218 24.2381673,12.27264 24.2381673,11.8614109 L24.2381673,11.8614109 C24.2381673,11.4501818 23.9047855,11.1168 23.4935564,11.1168 L21.2598109,11.1168 L21.2598109,9.79514182 L23.4935564,9.79514182 C23.9047855,9.79531636 24.2381673,9.46193455 24.2381673,9.05070545 Z" id="Path" fill="#00C500"></path>
                </g>
            </g>
        </g>
    </g>
</svg>