<?xml version="1.0" encoding="utf-8"?>
<!-- Generator: Adobe Illustrator 26.0.2, SVG Export Plug-In . SVG Version: 6.00 Build 0)  -->
<svg version="1.1" id="Layer_1" xmlns="http://www.w3.org/2000/svg" xmlns:xlink="http://www.w3.org/1999/xlink" x="0px" y="0px"
	 viewBox="0 0 3000 3000" style="enable-background:new 0 0 3000 3000;" xml:space="preserve">
<style type="text/css">
	.st0{fill:#0D122C;}
	.st1{fill:#FFFFFF;}
	.st2{fill:#4B9BE8;}
	.st3{fill:#0C122E;}
</style>
<g>
	<g>
		<path class="st0" d="M2990,3000H9.3c-5.3,0-9.7-4.3-9.7-9.7V9.7C-0.4,4.3,4,0,9.3,0l2990.3,0v2990.3
			C2999.6,2995.7,2995.3,3000,2990,3000z"/>
	</g>
	<g>
		<path class="st1" d="M1095.9,1941.5l94.1-121.5c74.5,76.5,180.3,125.4,309.7,125.4c131.3,0,231.3-50.9,231.3-141.1
			c0-96-111.7-125.4-243-156.8c-164.6-41.2-358.7-92.1-358.7-301.8c0-194,176.4-294,382.2-294c158.7,0,282.2,60.8,366.5,137.2
			l-94.1,123.5c-66.6-64.7-160.7-107.8-270.5-107.8c-115.6,0-211.7,45.1-211.7,131.3c0,98,113.7,125.4,246.9,156.8
			c164.6,39.2,356.7,88.2,356.7,295.9c0,198-178.4,309.7-403.7,309.7C1325.2,2098.3,1188,2029.7,1095.9,1941.5z"/>
		<polyline class="st2" points="2001.4,640.1 2599.1,640.1 2599.1,1237.9 2001.4,640.1 		"/>
	</g>
</g>
</svg>
